<?xml version="1.0" encoding="utf-8" ?>
<svg baseProfile="full" height="120px" version="1.1" width="800px" xmlns="http://www.w3.org/2000/svg" xmlns:ev="http://www.w3.org/2001/xml-events" xmlns:xlink="http://www.w3.org/1999/xlink"><defs><linearGradient gradientTransform="rotate(90)" id="bgGradient"><stop offset="0" stop-color="#0A0F1F" /><stop offset="1" stop-color="#1A2B4C" /></linearGradient><style type="text/css"><![CDATA[
    @keyframes flow {
        0% { transform: translateX(0); }
        100% { transform: translateX(-800px); }
    }
    ]]></style></defs><rect fill="url(#bgGradient)" height="100%" width="100%" x="0" y="0" /><rect fill="#FF0088" height="10" opacity="0.8" style="animation: flow 5s linear infinite;" width="10" x="193" y="77" /><rect fill="#FF0088" height="10" opacity="0.8" style="animation: flow 5s linear infinite;" width="10" x="544" y="33" /><rect fill="#FFA500" height="10" opacity="0.8" style="animation: flow 5s linear infinite;" width="10" x="353" y="78" /><rect fill="#00A3FF" height="10" opacity="0.8" style="animation: flow 5s linear infinite;" width="10" x="227" y="34" /><rect fill="#00A3FF" height="10" opacity="0.8" style="animation: flow 5s linear infinite;" width="10" x="252" y="78" /><rect fill="#FF0088" height="10" opacity="0.8" style="animation: flow 5s linear infinite;" width="10" x="757" y="64" /><rect fill="#00A3FF" height="10" opacity="0.8" style="animation: flow 5s linear infinite;" width="10" x="164" y="61" /><rect fill="#FFA500" height="10" opacity="0.8" style="animation: flow 5s linear infinite;" width="10" x="280" y="58" /><rect fill="#00A3FF" height="10" opacity="0.8" style="animation: flow 5s linear infinite;" width="10" x="408" y="64" /><rect fill="#00FF88" height="10" opacity="0.8" style="animation: flow 5s linear infinite;" width="10" x="188" y="80" /><rect fill="#FF0088" height="10" opacity="0.8" style="animation: flow 5s linear infinite;" width="10" x="101" y="46" /><rect fill="#FFA500" height="10" opacity="0.8" style="animation: flow 5s linear infinite;" width="10" x="276" y="66" /><rect fill="#FF0088" height="10" opacity="0.8" style="animation: flow 5s linear infinite;" width="10" x="105" y="35" /><rect fill="#FF0088" height="10" opacity="0.8" style="animation: flow 5s linear infinite;" width="10" x="104" y="25" /><rect fill="#00A3FF" height="10" opacity="0.8" style="animation: flow 5s linear infinite;" width="10" x="93" y="51" /><rect fill="#FFA500" height="10" opacity="0.8" style="animation: flow 5s linear infinite;" width="10" x="587" y="68" /><rect fill="#00A3FF" height="10" opacity="0.8" style="animation: flow 5s linear infinite;" width="10" x="148" y="53" /><rect fill="#FFA500" height="10" opacity="0.8" style="animation: flow 5s linear infinite;" width="10" x="223" y="59" /><rect fill="#00FF88" height="10" opacity="0.8" style="animation: flow 5s linear infinite;" width="10" x="4" y="45" /><rect fill="#FFA500" height="10" opacity="0.8" style="animation: flow 5s linear infinite;" width="10" x="734" y="76" /><rect fill="#00FF88" height="10" opacity="0.8" style="animation: flow 5s linear infinite;" width="10" x="202" y="72" /><rect fill="#00A3FF" height="10" opacity="0.8" style="animation: flow 5s linear infinite;" width="10" x="282" y="61" /><rect fill="#FF0088" height="10" opacity="0.8" style="animation: flow 5s linear infinite;" width="10" x="1" y="46" /><rect fill="#00A3FF" height="10" opacity="0.8" style="animation: flow 5s linear infinite;" width="10" x="777" y="74" /><rect fill="#FF0088" height="10" opacity="0.8" style="animation: flow 5s linear infinite;" width="10" x="475" y="54" /><rect fill="#00A3FF" height="10" opacity="0.8" style="animation: flow 5s linear infinite;" width="10" x="520" y="34" /><rect fill="#FF0088" height="10" opacity="0.8" style="animation: flow 5s linear infinite;" width="10" x="257" y="41" /><rect fill="#00A3FF" height="10" opacity="0.8" style="animation: flow 5s linear infinite;" width="10" x="241" y="77" /><rect fill="#FF0088" height="10" opacity="0.8" style="animation: flow 5s linear infinite;" width="10" x="142" y="50" /><rect fill="#FF0088" height="10" opacity="0.8" style="animation: flow 5s linear infinite;" width="10" x="707" y="52" /><rect fill="#FF0088" height="10" opacity="0.8" style="animation: flow 5s linear infinite;" width="10" x="430" y="72" /><rect fill="#FF0088" height="10" opacity="0.8" style="animation: flow 5s linear infinite;" width="10" x="721" y="23" /><rect fill="#00A3FF" height="10" opacity="0.8" style="animation: flow 5s linear infinite;" width="10" x="678" y="39" /><rect fill="#00A3FF" height="10" opacity="0.8" style="animation: flow 5s linear infinite;" width="10" x="91" y="26" /><rect fill="#00A3FF" height="10" opacity="0.8" style="animation: flow 5s linear infinite;" width="10" x="192" y="31" /><rect fill="#FFA500" height="10" opacity="0.8" style="animation: flow 5s linear infinite;" width="10" x="259" y="46" /><rect fill="#00FF88" height="10" opacity="0.8" style="animation: flow 5s linear infinite;" width="10" x="312" y="48" /><rect fill="#00A3FF" height="10" opacity="0.8" style="animation: flow 5s linear infinite;" width="10" x="744" y="77" /><rect fill="#00A3FF" height="10" opacity="0.8" style="animation: flow 5s linear infinite;" width="10" x="300" y="51" /><rect fill="#00FF88" height="10" opacity="0.8" style="animation: flow 5s linear infinite;" width="10" x="755" y="64" /><text fill="#FFFFFF" font-size="14" font-weight="bold" x="20" y="100">Contributions: 2414</text></svg>