<?xml version="1.0" encoding="utf-8" ?>
<svg baseProfile="full" height="120px" version="1.1" width="800px" xmlns="http://www.w3.org/2000/svg" xmlns:ev="http://www.w3.org/2001/xml-events" xmlns:xlink="http://www.w3.org/1999/xlink"><defs><linearGradient gradientTransform="rotate(90)" id="bgGradient"><stop offset="0" stop-color="#0A0F1F" /><stop offset="1" stop-color="#1A2B4C" /></linearGradient><style type="text/css"><![CDATA[
    @keyframes flow {
        0% { transform: translateX(0); }
        100% { transform: translateX(-800px); }
    }
    ]]></style></defs><rect fill="url(#bgGradient)" height="100%" width="100%" x="0" y="0" /><rect fill="#00A3FF" height="10" opacity="0.8" style="animation: flow 5s linear infinite;" width="10" x="494" y="56" /><rect fill="#00A3FF" height="10" opacity="0.8" style="animation: flow 5s linear infinite;" width="10" x="202" y="40" /><rect fill="#FF0088" height="10" opacity="0.8" style="animation: flow 5s linear infinite;" width="10" x="787" y="42" /><rect fill="#00A3FF" height="10" opacity="0.8" style="animation: flow 5s linear infinite;" width="10" x="46" y="56" /><rect fill="#00A3FF" height="10" opacity="0.8" style="animation: flow 5s linear infinite;" width="10" x="776" y="52" /><rect fill="#00A3FF" height="10" opacity="0.8" style="animation: flow 5s linear infinite;" width="10" x="736" y="51" /><rect fill="#00FF88" height="10" opacity="0.8" style="animation: flow 5s linear infinite;" width="10" x="29" y="76" /><rect fill="#FF0088" height="10" opacity="0.8" style="animation: flow 5s linear infinite;" width="10" x="334" y="69" /><rect fill="#00FF88" height="10" opacity="0.8" style="animation: flow 5s linear infinite;" width="10" x="608" y="29" /><rect fill="#00A3FF" height="10" opacity="0.8" style="animation: flow 5s linear infinite;" width="10" x="405" y="37" /><rect fill="#FF0088" height="10" opacity="0.8" style="animation: flow 5s linear infinite;" width="10" x="600" y="76" /><rect fill="#FF0088" height="10" opacity="0.8" style="animation: flow 5s linear infinite;" width="10" x="161" y="35" /><rect fill="#FFA500" height="10" opacity="0.8" style="animation: flow 5s linear infinite;" width="10" x="470" y="69" /><rect fill="#FFA500" height="10" opacity="0.8" style="animation: flow 5s linear infinite;" width="10" x="690" y="53" /><rect fill="#FFA500" height="10" opacity="0.8" style="animation: flow 5s linear infinite;" width="10" x="88" y="35" /><rect fill="#00FF88" height="10" opacity="0.8" style="animation: flow 5s linear infinite;" width="10" x="773" y="80" /><rect fill="#00A3FF" height="10" opacity="0.8" style="animation: flow 5s linear infinite;" width="10" x="456" y="56" /><rect fill="#FFA500" height="10" opacity="0.8" style="animation: flow 5s linear infinite;" width="10" x="578" y="64" /><rect fill="#FFA500" height="10" opacity="0.8" style="animation: flow 5s linear infinite;" width="10" x="342" y="34" /><rect fill="#FFA500" height="10" opacity="0.8" style="animation: flow 5s linear infinite;" width="10" x="502" y="40" /><rect fill="#FF0088" height="10" opacity="0.8" style="animation: flow 5s linear infinite;" width="10" x="649" y="47" /><rect fill="#FF0088" height="10" opacity="0.8" style="animation: flow 5s linear infinite;" width="10" x="32" y="24" /><rect fill="#FF0088" height="10" opacity="0.8" style="animation: flow 5s linear infinite;" width="10" x="555" y="28" /><rect fill="#00FF88" height="10" opacity="0.8" style="animation: flow 5s linear infinite;" width="10" x="243" y="33" /><rect fill="#00FF88" height="10" opacity="0.8" style="animation: flow 5s linear infinite;" width="10" x="245" y="51" /><rect fill="#00FF88" height="10" opacity="0.8" style="animation: flow 5s linear infinite;" width="10" x="430" y="47" /><rect fill="#00A3FF" height="10" opacity="0.8" style="animation: flow 5s linear infinite;" width="10" x="528" y="25" /><rect fill="#00FF88" height="10" opacity="0.8" style="animation: flow 5s linear infinite;" width="10" x="793" y="41" /><rect fill="#FF0088" height="10" opacity="0.8" style="animation: flow 5s linear infinite;" width="10" x="145" y="58" /><rect fill="#FF0088" height="10" opacity="0.8" style="animation: flow 5s linear infinite;" width="10" x="137" y="49" /><rect fill="#00A3FF" height="10" opacity="0.8" style="animation: flow 5s linear infinite;" width="10" x="698" y="34" /><rect fill="#FF0088" height="10" opacity="0.8" style="animation: flow 5s linear infinite;" width="10" x="499" y="29" /><rect fill="#FFA500" height="10" opacity="0.8" style="animation: flow 5s linear infinite;" width="10" x="54" y="34" /><rect fill="#00A3FF" height="10" opacity="0.8" style="animation: flow 5s linear infinite;" width="10" x="56" y="80" /><rect fill="#FF0088" height="10" opacity="0.8" style="animation: flow 5s linear infinite;" width="10" x="700" y="64" /><rect fill="#00A3FF" height="10" opacity="0.8" style="animation: flow 5s linear infinite;" width="10" x="150" y="22" /><rect fill="#00A3FF" height="10" opacity="0.8" style="animation: flow 5s linear infinite;" width="10" x="97" y="46" /><rect fill="#FFA500" height="10" opacity="0.8" style="animation: flow 5s linear infinite;" width="10" x="271" y="37" /><rect fill="#FF0088" height="10" opacity="0.8" style="animation: flow 5s linear infinite;" width="10" x="49" y="74" /><rect fill="#FF0088" height="10" opacity="0.8" style="animation: flow 5s linear infinite;" width="10" x="36" y="21" /><text fill="#FFFFFF" font-size="14" font-weight="bold" x="20" y="100">Contributions: 2425</text></svg>