<?xml version="1.0" encoding="utf-8" ?>
<svg baseProfile="full" height="120px" version="1.1" width="800px" xmlns="http://www.w3.org/2000/svg" xmlns:ev="http://www.w3.org/2001/xml-events" xmlns:xlink="http://www.w3.org/1999/xlink"><defs><linearGradient gradientTransform="rotate(90)" id="bgGradient"><stop offset="0" stop-color="#0A0F1F" /><stop offset="1" stop-color="#1A2B4C" /></linearGradient><style type="text/css"><![CDATA[
    @keyframes flow {
        0% { transform: translateX(0); }
        100% { transform: translateX(-800px); }
    }
    ]]></style></defs><rect fill="url(#bgGradient)" height="100%" width="100%" x="0" y="0" /><rect fill="#FF0088" height="10" opacity="0.8" style="animation: flow 5s linear infinite;" width="10" x="99" y="72" /><rect fill="#00A3FF" height="10" opacity="0.8" style="animation: flow 5s linear infinite;" width="10" x="265" y="65" /><rect fill="#FF0088" height="10" opacity="0.8" style="animation: flow 5s linear infinite;" width="10" x="289" y="28" /><rect fill="#00FF88" height="10" opacity="0.8" style="animation: flow 5s linear infinite;" width="10" x="767" y="61" /><rect fill="#00FF88" height="10" opacity="0.8" style="animation: flow 5s linear infinite;" width="10" x="185" y="34" /><rect fill="#FFA500" height="10" opacity="0.8" style="animation: flow 5s linear infinite;" width="10" x="165" y="51" /><rect fill="#FF0088" height="10" opacity="0.8" style="animation: flow 5s linear infinite;" width="10" x="59" y="23" /><rect fill="#00FF88" height="10" opacity="0.8" style="animation: flow 5s linear infinite;" width="10" x="482" y="44" /><rect fill="#FF0088" height="10" opacity="0.8" style="animation: flow 5s linear infinite;" width="10" x="34" y="50" /><rect fill="#00FF88" height="10" opacity="0.8" style="animation: flow 5s linear infinite;" width="10" x="545" y="73" /><rect fill="#FFA500" height="10" opacity="0.8" style="animation: flow 5s linear infinite;" width="10" x="526" y="34" /><rect fill="#FFA500" height="10" opacity="0.8" style="animation: flow 5s linear infinite;" width="10" x="2" y="43" /><rect fill="#FF0088" height="10" opacity="0.8" style="animation: flow 5s linear infinite;" width="10" x="47" y="72" /><rect fill="#00A3FF" height="10" opacity="0.8" style="animation: flow 5s linear infinite;" width="10" x="236" y="43" /><rect fill="#FF0088" height="10" opacity="0.8" style="animation: flow 5s linear infinite;" width="10" x="652" y="31" /><rect fill="#00FF88" height="10" opacity="0.8" style="animation: flow 5s linear infinite;" width="10" x="467" y="51" /><rect fill="#00FF88" height="10" opacity="0.8" style="animation: flow 5s linear infinite;" width="10" x="621" y="64" /><rect fill="#00FF88" height="10" opacity="0.8" style="animation: flow 5s linear infinite;" width="10" x="397" y="70" /><rect fill="#FF0088" height="10" opacity="0.8" style="animation: flow 5s linear infinite;" width="10" x="350" y="70" /><rect fill="#FFA500" height="10" opacity="0.8" style="animation: flow 5s linear infinite;" width="10" x="787" y="35" /><rect fill="#00FF88" height="10" opacity="0.8" style="animation: flow 5s linear infinite;" width="10" x="469" y="62" /><rect fill="#FFA500" height="10" opacity="0.8" style="animation: flow 5s linear infinite;" width="10" x="474" y="25" /><rect fill="#FFA500" height="10" opacity="0.8" style="animation: flow 5s linear infinite;" width="10" x="597" y="70" /><rect fill="#00FF88" height="10" opacity="0.8" style="animation: flow 5s linear infinite;" width="10" x="619" y="56" /><rect fill="#FFA500" height="10" opacity="0.8" style="animation: flow 5s linear infinite;" width="10" x="137" y="54" /><rect fill="#FFA500" height="10" opacity="0.8" style="animation: flow 5s linear infinite;" width="10" x="223" y="66" /><rect fill="#00FF88" height="10" opacity="0.8" style="animation: flow 5s linear infinite;" width="10" x="333" y="74" /><rect fill="#FF0088" height="10" opacity="0.8" style="animation: flow 5s linear infinite;" width="10" x="561" y="53" /><rect fill="#00A3FF" height="10" opacity="0.8" style="animation: flow 5s linear infinite;" width="10" x="335" y="63" /><rect fill="#00FF88" height="10" opacity="0.8" style="animation: flow 5s linear infinite;" width="10" x="29" y="49" /><rect fill="#FFA500" height="10" opacity="0.8" style="animation: flow 5s linear infinite;" width="10" x="691" y="56" /><rect fill="#00A3FF" height="10" opacity="0.8" style="animation: flow 5s linear infinite;" width="10" x="215" y="25" /><rect fill="#FFA500" height="10" opacity="0.8" style="animation: flow 5s linear infinite;" width="10" x="705" y="72" /><rect fill="#00FF88" height="10" opacity="0.8" style="animation: flow 5s linear infinite;" width="10" x="542" y="33" /><rect fill="#00FF88" height="10" opacity="0.8" style="animation: flow 5s linear infinite;" width="10" x="217" y="56" /><rect fill="#00A3FF" height="10" opacity="0.8" style="animation: flow 5s linear infinite;" width="10" x="449" y="33" /><rect fill="#FFA500" height="10" opacity="0.8" style="animation: flow 5s linear infinite;" width="10" x="387" y="69" /><rect fill="#FF0088" height="10" opacity="0.8" style="animation: flow 5s linear infinite;" width="10" x="638" y="34" /><rect fill="#00A3FF" height="10" opacity="0.8" style="animation: flow 5s linear infinite;" width="10" x="268" y="28" /><rect fill="#00FF88" height="10" opacity="0.8" style="animation: flow 5s linear infinite;" width="10" x="456" y="20" /><text fill="#FFFFFF" font-size="14" font-weight="bold" x="20" y="100">Contributions: 2389</text></svg>