<?xml version="1.0" encoding="utf-8" ?>
<svg baseProfile="full" height="120px" version="1.1" width="800px" xmlns="http://www.w3.org/2000/svg" xmlns:ev="http://www.w3.org/2001/xml-events" xmlns:xlink="http://www.w3.org/1999/xlink"><defs><linearGradient gradientTransform="rotate(90)" id="bgGradient"><stop offset="0" stop-color="#0A0F1F" /><stop offset="1" stop-color="#1A2B4C" /></linearGradient><style type="text/css"><![CDATA[
    @keyframes flow {
        0% { transform: translateX(0); }
        100% { transform: translateX(-800px); }
    }
    ]]></style></defs><rect fill="url(#bgGradient)" height="100%" width="100%" x="0" y="0" /><rect fill="#00FF88" height="10" opacity="0.8" style="animation: flow 5s linear infinite;" width="10" x="314" y="46" /><rect fill="#FF0088" height="10" opacity="0.8" style="animation: flow 5s linear infinite;" width="10" x="131" y="34" /><rect fill="#FFA500" height="10" opacity="0.8" style="animation: flow 5s linear infinite;" width="10" x="598" y="57" /><rect fill="#FF0088" height="10" opacity="0.8" style="animation: flow 5s linear infinite;" width="10" x="96" y="55" /><rect fill="#00FF88" height="10" opacity="0.8" style="animation: flow 5s linear infinite;" width="10" x="452" y="45" /><rect fill="#FF0088" height="10" opacity="0.8" style="animation: flow 5s linear infinite;" width="10" x="701" y="63" /><rect fill="#00A3FF" height="10" opacity="0.8" style="animation: flow 5s linear infinite;" width="10" x="405" y="65" /><rect fill="#FF0088" height="10" opacity="0.8" style="animation: flow 5s linear infinite;" width="10" x="161" y="28" /><rect fill="#FFA500" height="10" opacity="0.8" style="animation: flow 5s linear infinite;" width="10" x="516" y="35" /><rect fill="#FF0088" height="10" opacity="0.8" style="animation: flow 5s linear infinite;" width="10" x="791" y="67" /><rect fill="#FFA500" height="10" opacity="0.8" style="animation: flow 5s linear infinite;" width="10" x="558" y="78" /><rect fill="#FF0088" height="10" opacity="0.8" style="animation: flow 5s linear infinite;" width="10" x="261" y="64" /><rect fill="#FF0088" height="10" opacity="0.8" style="animation: flow 5s linear infinite;" width="10" x="77" y="23" /><rect fill="#00FF88" height="10" opacity="0.8" style="animation: flow 5s linear infinite;" width="10" x="589" y="68" /><rect fill="#FF0088" height="10" opacity="0.8" style="animation: flow 5s linear infinite;" width="10" x="354" y="32" /><rect fill="#00FF88" height="10" opacity="0.8" style="animation: flow 5s linear infinite;" width="10" x="284" y="75" /><rect fill="#00FF88" height="10" opacity="0.8" style="animation: flow 5s linear infinite;" width="10" x="662" y="55" /><rect fill="#FF0088" height="10" opacity="0.8" style="animation: flow 5s linear infinite;" width="10" x="205" y="48" /><rect fill="#00A3FF" height="10" opacity="0.8" style="animation: flow 5s linear infinite;" width="10" x="734" y="60" /><rect fill="#FFA500" height="10" opacity="0.8" style="animation: flow 5s linear infinite;" width="10" x="755" y="43" /><rect fill="#FFA500" height="10" opacity="0.8" style="animation: flow 5s linear infinite;" width="10" x="781" y="72" /><rect fill="#00FF88" height="10" opacity="0.8" style="animation: flow 5s linear infinite;" width="10" x="753" y="69" /><rect fill="#FFA500" height="10" opacity="0.8" style="animation: flow 5s linear infinite;" width="10" x="442" y="74" /><rect fill="#FFA500" height="10" opacity="0.8" style="animation: flow 5s linear infinite;" width="10" x="727" y="49" /><rect fill="#00A3FF" height="10" opacity="0.8" style="animation: flow 5s linear infinite;" width="10" x="467" y="59" /><rect fill="#FFA500" height="10" opacity="0.8" style="animation: flow 5s linear infinite;" width="10" x="187" y="74" /><rect fill="#FFA500" height="10" opacity="0.8" style="animation: flow 5s linear infinite;" width="10" x="238" y="52" /><rect fill="#00A3FF" height="10" opacity="0.8" style="animation: flow 5s linear infinite;" width="10" x="57" y="22" /><rect fill="#00FF88" height="10" opacity="0.8" style="animation: flow 5s linear infinite;" width="10" x="534" y="46" /><rect fill="#FFA500" height="10" opacity="0.8" style="animation: flow 5s linear infinite;" width="10" x="346" y="44" /><rect fill="#00FF88" height="10" opacity="0.8" style="animation: flow 5s linear infinite;" width="10" x="56" y="46" /><rect fill="#FFA500" height="10" opacity="0.8" style="animation: flow 5s linear infinite;" width="10" x="498" y="77" /><rect fill="#00FF88" height="10" opacity="0.8" style="animation: flow 5s linear infinite;" width="10" x="779" y="44" /><rect fill="#00FF88" height="10" opacity="0.8" style="animation: flow 5s linear infinite;" width="10" x="798" y="37" /><rect fill="#00A3FF" height="10" opacity="0.8" style="animation: flow 5s linear infinite;" width="10" x="418" y="22" /><rect fill="#00A3FF" height="10" opacity="0.8" style="animation: flow 5s linear infinite;" width="10" x="473" y="20" /><rect fill="#00A3FF" height="10" opacity="0.8" style="animation: flow 5s linear infinite;" width="10" x="426" y="23" /><rect fill="#FFA500" height="10" opacity="0.8" style="animation: flow 5s linear infinite;" width="10" x="484" y="64" /><rect fill="#FF0088" height="10" opacity="0.8" style="animation: flow 5s linear infinite;" width="10" x="794" y="41" /><rect fill="#FFA500" height="10" opacity="0.8" style="animation: flow 5s linear infinite;" width="10" x="714" y="35" /><text fill="#FFFFFF" font-size="14" font-weight="bold" x="20" y="100">Contributions: 2409</text></svg>