<?xml version="1.0" encoding="utf-8" ?>
<svg baseProfile="full" height="120px" version="1.1" width="800px" xmlns="http://www.w3.org/2000/svg" xmlns:ev="http://www.w3.org/2001/xml-events" xmlns:xlink="http://www.w3.org/1999/xlink"><defs><linearGradient gradientTransform="rotate(90)" id="bgGradient"><stop offset="0" stop-color="#0A0F1F" /><stop offset="1" stop-color="#1A2B4C" /></linearGradient><style type="text/css"><![CDATA[
    @keyframes flow {
        0% { transform: translateX(0); }
        100% { transform: translateX(-800px); }
    }
    ]]></style></defs><rect fill="url(#bgGradient)" height="100%" width="100%" x="0" y="0" /><rect fill="#00FF88" height="10" opacity="0.8" style="animation: flow 5s linear infinite;" width="10" x="476" y="36" /><rect fill="#FFA500" height="10" opacity="0.8" style="animation: flow 5s linear infinite;" width="10" x="183" y="28" /><rect fill="#FFA500" height="10" opacity="0.8" style="animation: flow 5s linear infinite;" width="10" x="638" y="28" /><rect fill="#FF0088" height="10" opacity="0.8" style="animation: flow 5s linear infinite;" width="10" x="670" y="42" /><rect fill="#00FF88" height="10" opacity="0.8" style="animation: flow 5s linear infinite;" width="10" x="364" y="60" /><rect fill="#00FF88" height="10" opacity="0.8" style="animation: flow 5s linear infinite;" width="10" x="624" y="21" /><rect fill="#FF0088" height="10" opacity="0.8" style="animation: flow 5s linear infinite;" width="10" x="494" y="54" /><rect fill="#FFA500" height="10" opacity="0.8" style="animation: flow 5s linear infinite;" width="10" x="114" y="63" /><rect fill="#FF0088" height="10" opacity="0.8" style="animation: flow 5s linear infinite;" width="10" x="562" y="80" /><rect fill="#FFA500" height="10" opacity="0.8" style="animation: flow 5s linear infinite;" width="10" x="228" y="33" /><rect fill="#FF0088" height="10" opacity="0.8" style="animation: flow 5s linear infinite;" width="10" x="510" y="44" /><rect fill="#FF0088" height="10" opacity="0.8" style="animation: flow 5s linear infinite;" width="10" x="305" y="51" /><rect fill="#00FF88" height="10" opacity="0.8" style="animation: flow 5s linear infinite;" width="10" x="536" y="32" /><rect fill="#FFA500" height="10" opacity="0.8" style="animation: flow 5s linear infinite;" width="10" x="762" y="59" /><rect fill="#00FF88" height="10" opacity="0.8" style="animation: flow 5s linear infinite;" width="10" x="250" y="59" /><rect fill="#00FF88" height="10" opacity="0.8" style="animation: flow 5s linear infinite;" width="10" x="170" y="73" /><rect fill="#FFA500" height="10" opacity="0.8" style="animation: flow 5s linear infinite;" width="10" x="658" y="45" /><rect fill="#FF0088" height="10" opacity="0.8" style="animation: flow 5s linear infinite;" width="10" x="343" y="44" /><rect fill="#00FF88" height="10" opacity="0.8" style="animation: flow 5s linear infinite;" width="10" x="84" y="43" /><rect fill="#00FF88" height="10" opacity="0.8" style="animation: flow 5s linear infinite;" width="10" x="225" y="24" /><rect fill="#FF0088" height="10" opacity="0.8" style="animation: flow 5s linear infinite;" width="10" x="450" y="46" /><rect fill="#00A3FF" height="10" opacity="0.8" style="animation: flow 5s linear infinite;" width="10" x="2" y="62" /><rect fill="#00FF88" height="10" opacity="0.8" style="animation: flow 5s linear infinite;" width="10" x="534" y="43" /><rect fill="#00A3FF" height="10" opacity="0.8" style="animation: flow 5s linear infinite;" width="10" x="519" y="26" /><rect fill="#FF0088" height="10" opacity="0.8" style="animation: flow 5s linear infinite;" width="10" x="767" y="35" /><rect fill="#FFA500" height="10" opacity="0.8" style="animation: flow 5s linear infinite;" width="10" x="234" y="40" /><rect fill="#00FF88" height="10" opacity="0.8" style="animation: flow 5s linear infinite;" width="10" x="476" y="21" /><rect fill="#FFA500" height="10" opacity="0.8" style="animation: flow 5s linear infinite;" width="10" x="45" y="64" /><rect fill="#00A3FF" height="10" opacity="0.8" style="animation: flow 5s linear infinite;" width="10" x="666" y="49" /><rect fill="#FFA500" height="10" opacity="0.8" style="animation: flow 5s linear infinite;" width="10" x="753" y="41" /><rect fill="#00A3FF" height="10" opacity="0.8" style="animation: flow 5s linear infinite;" width="10" x="259" y="52" /><rect fill="#00FF88" height="10" opacity="0.8" style="animation: flow 5s linear infinite;" width="10" x="305" y="37" /><rect fill="#00FF88" height="10" opacity="0.8" style="animation: flow 5s linear infinite;" width="10" x="777" y="57" /><rect fill="#00FF88" height="10" opacity="0.8" style="animation: flow 5s linear infinite;" width="10" x="258" y="57" /><rect fill="#FFA500" height="10" opacity="0.8" style="animation: flow 5s linear infinite;" width="10" x="258" y="25" /><rect fill="#00FF88" height="10" opacity="0.8" style="animation: flow 5s linear infinite;" width="10" x="661" y="74" /><rect fill="#00FF88" height="10" opacity="0.8" style="animation: flow 5s linear infinite;" width="10" x="64" y="50" /><rect fill="#FFA500" height="10" opacity="0.8" style="animation: flow 5s linear infinite;" width="10" x="424" y="74" /><rect fill="#FF0088" height="10" opacity="0.8" style="animation: flow 5s linear infinite;" width="10" x="644" y="74" /><rect fill="#FF0088" height="10" opacity="0.8" style="animation: flow 5s linear infinite;" width="10" x="730" y="27" /><text fill="#FFFFFF" font-size="14" font-weight="bold" x="20" y="100">Contributions: 2390</text></svg>